<svg width="42" height="42" viewBox="0 0 42 42" fill="none" xmlns="http://www.w3.org/2000/svg">
<mask id="mask0_1017_6989" style="mask-type:luminance" maskUnits="userSpaceOnUse" x="0" y="0" width="43" height="42">
<path d="M0.00610352 0H42.0061V42H0.00610352V0Z" fill="white"/>
</mask>
<g mask="url(#mask0_1017_6989)">
<path d="M21.0059 0C9.40804 0 0.00610352 9.40211 0.00610352 21.0002C0.00610352 32.5979 9.40804 42 21.0059 42C32.604 42 42.0061 32.5979 42.0061 21.0002C42.0061 9.40211 32.604 0 21.0059 0Z" fill="#101828"/>
</g>
<path fill-rule="evenodd" clip-rule="evenodd" d="M33.3367 15.2444C30.154 15.2444 27.5738 17.8246 27.5738 21.0073C27.5738 24.19 30.154 26.7702 33.3367 26.7702C36.22 26.7668 38.6574 24.6326 39.0411 21.7754H35.7522C35.4266 22.7999 34.4685 23.542 33.3367 23.542C31.9368 23.542 30.8025 22.4071 30.8025 21.0078C30.8025 19.608 31.9373 18.4736 33.3367 18.4731C34.4685 18.4731 35.4271 19.2152 35.7522 20.2397H39.0416C38.6574 17.3815 36.22 15.2478 33.3367 15.2444ZM8.6491 23.5415C7.24928 23.5415 6.1149 22.4066 6.1149 21.0068C6.1149 19.607 7.24979 18.4726 8.6491 18.4726C10.0489 18.4726 11.1833 19.6075 11.1833 21.0068C11.1833 22.4071 10.0484 23.5415 8.6491 23.5415ZM14.412 26.6727V21.0073C14.412 17.8246 11.8318 15.2444 8.6491 15.2444C5.46641 15.2444 2.88623 17.8246 2.88623 21.0073C2.88623 24.19 5.46641 26.7702 8.6491 26.7702C9.58819 26.7687 10.5617 26.3698 11.2477 25.7064V26.6727H14.412ZM20.9802 18.4731C22.38 18.4731 23.5144 19.608 23.5144 21.0078C23.5144 22.4078 22.3795 23.542 20.9802 23.542C19.5804 23.542 18.446 22.4071 18.446 21.0078C18.446 19.6075 19.5804 18.4731 20.9802 18.4731ZM15.2173 12.4082V21.0073C15.2173 24.19 17.7975 26.7702 20.9802 26.7702C24.1632 26.7702 26.7431 24.19 26.7431 21.0073C26.7431 17.8246 24.1632 15.2444 20.9802 15.2444C20.1015 15.2458 19.1918 15.5255 18.446 16.0308V12.4082H15.2173Z" fill="white"/>
</svg>
