<svg width="80" height="80" viewBox="0 0 80 80" fill="none" xmlns="http://www.w3.org/2000/svg">
<path d="M-1.58426e-06 39.9437C-7.10693e-07 19.9587 16.2598 3.69995 36.2448 3.69995C55.0298 3.69995 70.7398 18.1762 72.3461 36.7912L75.9836 29.615C76.4698 28.7287 77.5635 28.2012 78.4273 28.7262L79.0835 28.98C79.9473 29.5075 80.2535 30.65 79.7697 31.5336L73.6372 43.5111C73.6272 43.5262 73.6298 43.5424 73.6198 43.5575L73.1798 44.3612C72.936 44.805 72.5373 45.0987 72.0936 45.2161C71.6498 45.3387 71.1561 45.2825 70.7261 45.0187L69.9448 44.5425C69.9298 44.535 69.9198 44.52 69.9061 44.5112L58.3461 37.1136C57.4823 36.5886 57.1761 35.4487 57.6598 34.56L58.0648 33.9787C58.5486 33.0925 59.7986 33.0337 60.6599 33.5587L67.4312 37.9237C67.4299 37.9 67.4212 37.8787 67.4199 37.8561C66.3475 21.5061 52.6512 8.69988 36.245 8.69988C19.0162 8.69995 5 22.7161 5 39.9437C5 57.1737 19.0162 71.2687 36.2451 71.2687C46.1651 71.2687 55.2763 66.7125 61.2426 58.7687C62.0726 57.665 63.6401 57.4425 64.7439 58.2713C65.8501 59.1013 66.0701 60.6689 65.2414 61.7726C58.3201 70.9864 47.7514 76.27 36.2452 76.27C16.2601 76.2687 -2.45789e-06 59.93 -1.58426e-06 39.9437Z" fill="#FF9C1D"/>
<path d="M27.4731 35.8975V29.7437C27.4731 25.2104 31.0138 21.5386 35.3852 21.5386C39.7566 21.5386 43.2973 25.2104 43.2973 29.7437V35.8975M35.3852 46.154C35.9098 46.154 36.4129 45.9378 36.7839 45.5532C37.1548 45.1685 37.3632 44.6467 37.3632 44.1027C37.3632 43.5586 37.1548 43.0369 36.7839 42.6522C36.4129 42.2675 35.9098 42.0514 35.3852 42.0514C34.8606 42.0514 34.3575 42.2675 33.9865 42.6522C33.6156 43.0369 33.4072 43.5586 33.4072 44.1027C33.4072 44.6467 33.6156 45.1685 33.9865 45.5532C34.3575 45.9378 34.8606 46.154 35.3852 46.154ZM35.3852 46.154V52.3078M24.7039 35.8975H46.0665C47.8072 35.8975 49.2314 37.3745 49.2314 39.1796V53.5386C49.2314 56.2463 47.0951 58.4616 44.4841 58.4616H26.2863C23.6753 58.4616 21.5391 56.2463 21.5391 53.5386V39.1796C21.5391 37.3745 22.9632 35.8975 24.7039 35.8975Z" stroke="#FF9C1D" stroke-width="4" stroke-miterlimit="10" stroke-linecap="round" stroke-linejoin="round"/>
</svg>
