<svg width="32" height="32" viewBox="0 0 32 32" fill="none" xmlns="http://www.w3.org/2000/svg">
<path d="M25.3333 14.6641H6.66667C5.19391 14.6641 4 15.858 4 17.3307V26.6641C4 28.1368 5.19391 29.3307 6.66667 29.3307H25.3333C26.8061 29.3307 28 28.1368 28 26.6641V17.3307C28 15.858 26.8061 14.6641 25.3333 14.6641Z" stroke="#1B41CA" stroke-width="2" stroke-linecap="round" stroke-linejoin="round"/>
<path d="M9.33331 14.6641V9.33073C9.33331 7.56262 10.0357 5.86693 11.2859 4.61668C12.5362 3.36644 14.2319 2.66406 16 2.66406C17.7681 2.66406 19.4638 3.36644 20.714 4.61668C21.9643 5.86693 22.6666 7.56262 22.6666 9.33073V14.6641" stroke="#1B41CA" stroke-width="2" stroke-linecap="round" stroke-linejoin="round"/>
</svg>
