<svg width="86" height="26" viewBox="0 0 86 26" fill="none" xmlns="http://www.w3.org/2000/svg">
<g clip-path="url(#clip0_619_1021)">
<path d="M24.7401 12.9741C24.7494 19.873 19.2412 25.4732 12.4367 25.4829C12.4311 25.4829 12.4254 25.4829 12.4197 25.4829C5.62087 25.4694 0.112714 19.8847 0.0995483 12.9913C0.122117 6.10468 5.62762 0.530438 12.4197 0.51709C19.2241 0.51709 24.7401 6.10971 24.7401 13.0086V12.9741ZM23.9974 12.9741C23.0324 10.8175 21.4763 8.98775 19.5142 7.70319C17.426 6.25446 14.95 5.4891 12.4198 5.51025C9.87917 5.49126 7.39314 6.25602 5.29113 7.70319C3.3442 8.99573 1.80095 10.8239 0.842108 12.9741C1.80446 15.1299 3.34634 16.9674 5.29113 18.2759C7.40015 19.7041 9.88378 20.4573 12.4198 20.4378C14.9457 20.46 17.4191 19.7063 19.5142 18.2759C21.4741 16.9752 23.0289 15.1366 23.9974 12.9741ZM18.9736 12.9741C18.9751 16.6342 16.0499 19.6028 12.4398 19.6044C10.7043 19.6052 9.04 18.9064 7.81323 17.6618C5.26164 15.0746 5.26164 10.8801 7.81323 8.29312C10.365 5.70596 14.502 5.70596 17.0535 8.29312C18.3075 9.51493 19.0032 11.2109 18.9736 12.9741Z" fill="white"/>
<path d="M26.9338 12.9743C26.9338 6.52369 32.1801 1.20437 39.0215 1.20437C42.6623 1.18651 46.1144 2.84587 48.4055 5.71525L45.2397 8.94226C45.2397 8.94226 43.0153 5.71871 39.0386 5.71871C35.0864 5.71871 31.8826 8.96722 31.8826 12.9743C31.8826 16.9814 35.0864 20.2298 39.0386 20.2298C43.1728 20.2298 45.4007 17.0064 45.4007 17.0064L48.5799 20.2298C46.2436 23.1291 42.7309 24.7899 39.0386 24.7407C32.1801 24.7476 26.9338 19.4247 26.9338 12.9743Z" fill="white"/>
<path d="M50.346 1.68628H59.73C64.179 1.68628 66.8859 4.42746 66.8859 7.65447C66.9125 9.69131 65.717 11.5406 63.8641 12.3285C63.8641 12.3285 67.9982 13.4595 67.9982 17.8108C67.9982 21.3604 65.1371 24.2613 60.3664 24.2613H50.346V1.68628ZM59.4115 10.3957C61.0029 10.3957 61.9543 9.42763 61.9543 8.13683C61.9543 6.84594 61.0029 5.87784 59.4115 5.87784H55.1167V10.3886L59.4115 10.3957ZM60.0483 20.0698C61.9543 20.0698 63.0701 18.942 63.0701 17.3285C63.0701 15.715 61.9543 14.5875 60.0483 14.5875H55.1166V20.0698H60.0483Z" fill="white"/>
<path d="M68.5732 21.1978L71.7524 17.9741C73.0857 19.4991 74.9926 20.3813 77.0022 20.403C79.5449 20.403 80.6607 19.2755 80.6607 17.8216C80.6607 13.9525 69.5245 15.7396 69.5245 7.82481C69.5245 4.27848 72.5464 1.23193 77.6386 1.23193C82.5667 1.23193 85.113 4.2959 85.113 4.2959L81.9303 7.51945C80.869 6.33118 79.3766 5.63221 77.7962 5.58315C75.4006 5.58315 74.4562 6.55126 74.4562 7.84206C74.4562 11.7109 85.5889 9.92397 85.5889 17.8389C85.5889 21.5481 82.4098 24.7786 77.1597 24.7786C71.4341 24.7475 68.5732 21.1978 68.5732 21.1978Z" fill="white"/>
</g>
<defs>
<clipPath id="clip0_619_1021">
<rect width="85.4892" height="24.9659" fill="white" transform="translate(0.0995483 0.51709)"/>
</clipPath>
</defs>
</svg>
