<svg width="18" height="16" viewBox="0 0 18 16" fill="none" xmlns="http://www.w3.org/2000/svg">
<path d="M14.25 7.33594H3.75C2.92157 7.33594 2.25 7.93289 2.25 8.66927V13.3359C2.25 14.0723 2.92157 14.6693 3.75 14.6693H14.25C15.0784 14.6693 15.75 14.0723 15.75 13.3359V8.66927C15.75 7.93289 15.0784 7.33594 14.25 7.33594Z" stroke="#475467" stroke-width="1.5" stroke-linecap="round" stroke-linejoin="round"/>
<path d="M5.25 7.33594V4.66927C5.25 3.78522 5.64509 2.93737 6.34835 2.31225C7.05161 1.68713 8.00544 1.33594 9 1.33594C9.99456 1.33594 10.9484 1.68713 11.6517 2.31225C12.3549 2.93737 12.75 3.78522 12.75 4.66927V7.33594" stroke="#475467" stroke-width="1.5" stroke-linecap="round" stroke-linejoin="round"/>
</svg>
