<svg width="32" height="32" viewBox="0 0 32 32" fill="none" xmlns="http://www.w3.org/2000/svg">
<g clip-path="url(#clip0_701_8563)">
<path d="M1.33334 16.0026C1.33334 17.9287 1.71271 19.8359 2.44978 21.6153C3.18685 23.3947 4.26718 25.0116 5.62911 26.3735C6.99104 27.7354 8.60788 28.8158 10.3873 29.5528C12.1668 30.2899 14.074 30.6693 16 30.6693C17.9261 30.6693 19.8333 30.2899 21.6127 29.5528C23.3921 28.8158 25.009 27.7354 26.3709 26.3735C27.7328 25.0116 28.8132 23.3947 29.5502 21.6153C30.2873 19.8359 30.6667 17.9287 30.6667 16.0026C30.6667 14.0765 30.2873 12.1694 29.5502 10.3899C28.8132 8.61047 27.7328 6.99363 26.3709 5.6317C25.009 4.26978 23.3921 3.18944 21.6127 2.45237C19.8333 1.7153 17.9261 1.33594 16 1.33594C14.074 1.33594 12.1668 1.7153 10.3873 2.45237C8.60788 3.18944 6.99104 4.26978 5.62911 5.6317C4.26718 6.99363 3.18685 8.61047 2.44978 10.3899C1.71271 12.1694 1.33334 14.0765 1.33334 16.0026Z" stroke="#1B41CA" stroke-width="2" stroke-linecap="round" stroke-linejoin="round"/>
<path d="M19.0417 12.3377C18.6408 11.5555 17.8879 11.0845 17.0861 11.1155H14.9122C13.7128 11.1155 12.7399 12.2073 12.7399 13.5599C12.7399 14.9076 13.7128 16.0027 14.9122 16.0027H17.0861C18.2855 16.0027 19.2584 17.0962 19.2584 18.4472C19.2584 19.7965 18.2855 20.89 17.0861 20.89H14.9122C14.1104 20.9209 13.3575 20.45 12.9566 19.6677M15.9992 7.85619V11.1155M15.9992 20.8932V24.1525M6.22137 6.22656L8.66582 8.67101M23.3325 23.3377L25.7769 25.7821" stroke="#1B41CA" stroke-width="2" stroke-linecap="round" stroke-linejoin="round"/>
</g>
<defs>
<clipPath id="clip0_701_8563">
<rect width="32" height="32" fill="white"/>
</clipPath>
</defs>
</svg>
