<svg width="24" height="24" viewBox="0 0 24 24" fill="none" xmlns="http://www.w3.org/2000/svg">
<mask id="path-1-inside-1_377_1078" fill="white">
<path d="M11.91 13.999L19.753 14C20.3497 14 20.922 14.2371 21.344 14.659C21.7659 15.081 22.003 15.6533 22.003 16.25V17.155C22.003 17.6954 21.8862 18.2294 21.6606 18.7204C21.435 19.2115 21.106 19.648 20.696 20C19.13 21.345 16.89 22.002 14 22.002H13.821C13.9359 21.7691 13.9978 21.5136 14.0023 21.2539C14.0068 20.9942 13.9538 20.7368 13.847 20.5L14 20.502C16.56 20.502 18.458 19.946 19.719 18.863C19.9649 18.6518 20.1623 18.3899 20.2977 18.0952C20.433 17.8006 20.503 17.4802 20.503 17.156V16.251C20.503 16.0521 20.424 15.8613 20.2833 15.7207C20.1427 15.58 19.9519 15.501 19.753 15.501H11.977C12.0222 14.9999 11.9997 14.4951 11.91 14M6.5 10.5C7.35486 10.5 8.19202 10.7436 8.91351 11.2021C9.63499 11.6606 10.2109 12.3152 10.5739 13.0891C10.937 13.8631 11.072 14.7244 10.9633 15.5724C10.8545 16.4203 10.5065 17.2197 9.96 17.877L12.783 20.691C12.9163 20.8248 12.9942 21.004 13.0011 21.1928C13.008 21.3816 12.9434 21.566 12.8203 21.7092C12.6971 21.8524 12.5245 21.9439 12.3368 21.9654C12.1492 21.9869 11.9603 21.9367 11.808 21.825L11.723 21.753L8.82 18.857C8.22559 19.2143 7.55666 19.4293 6.86543 19.4853C6.17419 19.5413 5.47936 19.4368 4.83518 19.18C4.19101 18.9231 3.61491 18.5208 3.15188 18.0045C2.68884 17.4883 2.3514 16.872 2.16589 16.2037C1.98038 15.5355 1.95183 14.8334 2.08246 14.1524C2.2131 13.4713 2.49938 12.8296 2.91896 12.2774C3.33854 11.7252 3.88006 11.2775 4.50126 10.9692C5.12245 10.6609 5.8065 10.5003 6.5 10.5ZM6.5 12C5.70435 12 4.94129 12.3161 4.37868 12.8787C3.81607 13.4413 3.5 14.2044 3.5 15C3.5 15.7957 3.81607 16.5587 4.37868 17.1213C4.94129 17.6839 5.70435 18 6.5 18C7.29565 18 8.05871 17.6839 8.62132 17.1213C9.18393 16.5587 9.5 15.7957 9.5 15C9.5 14.2044 9.18393 13.4413 8.62132 12.8787C8.05871 12.3161 7.29565 12 6.5 12ZM14 2.005C14.6566 2.005 15.3068 2.13433 15.9134 2.38561C16.52 2.63688 17.0712 3.00518 17.5355 3.46947C17.9998 3.93376 18.3681 4.48496 18.6194 5.09159C18.8707 5.69822 19 6.3484 19 7.005C19 7.66161 18.8707 8.31179 18.6194 8.91842C18.3681 9.52505 17.9998 10.0762 17.5355 10.5405C17.0712 11.0048 16.52 11.3731 15.9134 11.6244C15.3068 11.8757 14.6566 12.005 14 12.005C12.6739 12.005 11.4021 11.4782 10.4645 10.5405C9.52678 9.60286 9 8.33109 9 7.005C9 5.67892 9.52678 4.40715 10.4645 3.46947C11.4021 2.53179 12.6739 2.005 14 2.005ZM14 3.505C13.5404 3.505 13.0852 3.59554 12.6606 3.77143C12.236 3.94732 11.8501 4.20513 11.5251 4.53013C11.2001 4.85514 10.9423 5.24097 10.7664 5.66561C10.5905 6.09025 10.5 6.54538 10.5 7.005C10.5 7.46463 10.5905 7.91976 10.7664 8.3444C10.9423 8.76904 11.2001 9.15487 11.5251 9.47988C11.8501 9.80488 12.236 10.0627 12.6606 10.2386C13.0852 10.4145 13.5404 10.505 14 10.505C14.9283 10.505 15.8185 10.1363 16.4749 9.47988C17.1313 8.8235 17.5 7.93326 17.5 7.005C17.5 6.07675 17.1313 5.18651 16.4749 4.53013C15.8185 3.87375 14.9283 3.505 14 3.505Z"/>
</mask>
<path d="M11.91 13.999L19.753 14C20.3497 14 20.922 14.2371 21.344 14.659C21.7659 15.081 22.003 15.6533 22.003 16.25V17.155C22.003 17.6954 21.8862 18.2294 21.6606 18.7204C21.435 19.2115 21.106 19.648 20.696 20C19.13 21.345 16.89 22.002 14 22.002H13.821C13.9359 21.7691 13.9978 21.5136 14.0023 21.2539C14.0068 20.9942 13.9538 20.7368 13.847 20.5L14 20.502C16.56 20.502 18.458 19.946 19.719 18.863C19.9649 18.6518 20.1623 18.3899 20.2977 18.0952C20.433 17.8006 20.503 17.4802 20.503 17.156V16.251C20.503 16.0521 20.424 15.8613 20.2833 15.7207C20.1427 15.58 19.9519 15.501 19.753 15.501H11.977C12.0222 14.9999 11.9997 14.4951 11.91 14M6.5 10.5C7.35486 10.5 8.19202 10.7436 8.91351 11.2021C9.63499 11.6606 10.2109 12.3152 10.5739 13.0891C10.937 13.8631 11.072 14.7244 10.9633 15.5724C10.8545 16.4203 10.5065 17.2197 9.96 17.877L12.783 20.691C12.9163 20.8248 12.9942 21.004 13.0011 21.1928C13.008 21.3816 12.9434 21.566 12.8203 21.7092C12.6971 21.8524 12.5245 21.9439 12.3368 21.9654C12.1492 21.9869 11.9603 21.9367 11.808 21.825L11.723 21.753L8.82 18.857C8.22559 19.2143 7.55666 19.4293 6.86543 19.4853C6.17419 19.5413 5.47936 19.4368 4.83518 19.18C4.19101 18.9231 3.61491 18.5208 3.15188 18.0045C2.68884 17.4883 2.3514 16.872 2.16589 16.2037C1.98038 15.5355 1.95183 14.8334 2.08246 14.1524C2.2131 13.4713 2.49938 12.8296 2.91896 12.2774C3.33854 11.7252 3.88006 11.2775 4.50126 10.9692C5.12245 10.6609 5.8065 10.5003 6.5 10.5ZM6.5 12C5.70435 12 4.94129 12.3161 4.37868 12.8787C3.81607 13.4413 3.5 14.2044 3.5 15C3.5 15.7957 3.81607 16.5587 4.37868 17.1213C4.94129 17.6839 5.70435 18 6.5 18C7.29565 18 8.05871 17.6839 8.62132 17.1213C9.18393 16.5587 9.5 15.7957 9.5 15C9.5 14.2044 9.18393 13.4413 8.62132 12.8787C8.05871 12.3161 7.29565 12 6.5 12ZM14 2.005C14.6566 2.005 15.3068 2.13433 15.9134 2.38561C16.52 2.63688 17.0712 3.00518 17.5355 3.46947C17.9998 3.93376 18.3681 4.48496 18.6194 5.09159C18.8707 5.69822 19 6.3484 19 7.005C19 7.66161 18.8707 8.31179 18.6194 8.91842C18.3681 9.52505 17.9998 10.0762 17.5355 10.5405C17.0712 11.0048 16.52 11.3731 15.9134 11.6244C15.3068 11.8757 14.6566 12.005 14 12.005C12.6739 12.005 11.4021 11.4782 10.4645 10.5405C9.52678 9.60286 9 8.33109 9 7.005C9 5.67892 9.52678 4.40715 10.4645 3.46947C11.4021 2.53179 12.6739 2.005 14 2.005ZM14 3.505C13.5404 3.505 13.0852 3.59554 12.6606 3.77143C12.236 3.94732 11.8501 4.20513 11.5251 4.53013C11.2001 4.85514 10.9423 5.24097 10.7664 5.66561C10.5905 6.09025 10.5 6.54538 10.5 7.005C10.5 7.46463 10.5905 7.91976 10.7664 8.3444C10.9423 8.76904 11.2001 9.15487 11.5251 9.47988C11.8501 9.80488 12.236 10.0627 12.6606 10.2386C13.0852 10.4145 13.5404 10.505 14 10.505C14.9283 10.505 15.8185 10.1363 16.4749 9.47988C17.1313 8.8235 17.5 7.93326 17.5 7.005C17.5 6.07675 17.1313 5.18651 16.4749 4.53013C15.8185 3.87375 14.9283 3.505 14 3.505Z" fill="#EAECF0"/>
<path d="M19.753 14L19.7529 15H19.753V14ZM22.003 17.155L23.003 17.155V17.155H22.003ZM20.696 20L20.0445 19.2413L20.0444 19.2414L20.696 20ZM13.821 22.002L12.9242 21.5597L12.2127 23.002H13.821V22.002ZM13.847 20.5L13.8601 19.5001L12.2899 19.4795L12.9354 20.9111L13.847 20.5ZM14 20.502L13.9869 21.502H14V20.502ZM19.719 18.863L20.3705 19.6216L20.3706 19.6216L19.719 18.863ZM20.503 17.156H19.503V17.1561L20.503 17.156ZM11.977 15.501L10.981 15.4112L10.8827 16.501H11.977V15.501ZM6.5 10.5L6.50004 9.5H6.49958L6.5 10.5ZM9.96 17.877L9.19107 17.2377L8.60693 17.9402L9.25402 18.5852L9.96 17.877ZM12.783 20.691L13.4916 19.9853L13.489 19.9828L12.783 20.691ZM11.808 21.825L11.1617 22.5881L11.1884 22.6107L11.2166 22.6314L11.808 21.825ZM11.723 21.753L11.0167 22.461L11.0456 22.4897L11.0767 22.5161L11.723 21.753ZM8.82 18.857L9.52625 18.149L8.97376 17.5979L8.30487 17.9999L8.82 18.857ZM3.5 15H2.5H3.5ZM6.5 18V19V18ZM14 2.005V3.005V2.005ZM14 12.005V11.005V12.005ZM11.9099 14.999L19.7529 15L19.7531 13L11.9101 12.999L11.9099 14.999ZM19.753 15C20.0845 15 20.4025 15.1317 20.6369 15.3661L22.0511 13.9519C21.4416 13.3424 20.615 13 19.753 13V15ZM20.6369 15.3661C20.8713 15.6005 21.003 15.9185 21.003 16.25H23.003C23.003 15.3881 22.6606 14.5614 22.0511 13.9519L20.6369 15.3661ZM21.003 16.25V17.155H23.003V16.25H21.003ZM21.003 17.155C21.003 17.5513 20.9173 17.9429 20.7519 18.303L22.5693 19.1379C22.855 18.5159 23.003 17.8395 23.003 17.155L21.003 17.155ZM20.7519 18.303C20.5865 18.6631 20.3452 18.9832 20.0445 19.2413L21.3475 20.7587C21.8668 20.3128 22.2836 19.7599 22.5693 19.1379L20.7519 18.303ZM20.0444 19.2414C18.7242 20.3753 16.7524 21.002 14 21.002V23.002C17.0276 23.002 19.5358 22.3147 21.3475 20.7586L20.0444 19.2414ZM14 21.002H13.821V23.002H14V21.002ZM14.7178 22.4444C14.898 22.0791 14.9951 21.6785 15.0021 21.2712L13.0024 21.2366C13.0005 21.3487 12.9738 21.4591 12.9242 21.5597L14.7178 22.4444ZM15.0021 21.2712C15.0092 20.864 14.926 20.4602 14.7586 20.089L12.9354 20.9111C12.9815 21.0133 13.0044 21.1245 13.0024 21.2366L15.0021 21.2712ZM13.8339 21.4999L13.9869 21.5019L14.0131 19.5021L13.8601 19.5001L13.8339 21.4999ZM14 21.502C16.683 21.502 18.8562 20.9222 20.3705 19.6216L19.0675 18.1044C18.0598 18.9698 16.437 19.502 14 19.502V21.502ZM20.3706 19.6216C20.7258 19.3165 21.0109 18.9382 21.2064 18.5126L19.3889 17.6779C19.3137 17.8415 19.2041 17.987 19.0674 18.1044L20.3706 19.6216ZM21.2064 18.5126C21.4019 18.087 21.503 17.6242 21.503 17.1559L19.503 17.1561C19.503 17.3362 19.4641 17.5142 19.3889 17.6779L21.2064 18.5126ZM21.503 17.156V16.251H19.503V17.156H21.503ZM21.503 16.251C21.503 15.7869 21.3186 15.3418 20.9904 15.0136L19.5762 16.4278C19.5293 16.3809 19.503 16.3173 19.503 16.251H21.503ZM20.9904 15.0136C20.6622 14.6854 20.2171 14.501 19.753 14.501V16.501C19.6867 16.501 19.6231 16.4747 19.5762 16.4278L20.9904 15.0136ZM19.753 14.501H11.977V16.501H19.753V14.501ZM12.973 15.5908C13.0262 15.0003 12.9997 14.4053 12.894 13.8218L10.926 14.1782C10.9997 14.5849 11.0182 14.9996 10.981 15.4112L12.973 15.5908ZM6.49996 11.5C7.16485 11.5 7.81598 11.6894 8.37713 12.0461L9.44988 10.3581C8.56807 9.7977 7.54487 9.50005 6.50004 9.5L6.49996 11.5ZM8.37713 12.0461C8.93829 12.4027 9.38625 12.9118 9.66859 13.5138L11.4793 12.6645C11.0356 11.7185 10.3317 10.9185 9.44988 10.3581L8.37713 12.0461ZM9.66859 13.5138C9.95092 14.1157 10.056 14.7857 9.97139 15.4452L11.9551 15.6995C12.088 14.6632 11.923 13.6104 11.4793 12.6645L9.66859 13.5138ZM9.97139 15.4452C9.88682 16.1047 9.61616 16.7264 9.19107 17.2377L10.7289 18.5163C11.3969 17.7129 11.8223 16.7359 11.9551 15.6995L9.97139 15.4452ZM9.25402 18.5852L12.077 21.3992L13.489 19.9828L10.666 17.1688L9.25402 18.5852ZM12.0744 21.3967C12.03 21.352 12.0041 21.2923 12.0017 21.2294L14.0004 21.1562C13.9843 20.7158 13.8026 20.2976 13.4916 19.9854L12.0744 21.3967ZM12.0017 21.2294C11.9994 21.1665 12.021 21.105 12.062 21.0573L13.5785 22.3612C13.8659 22.027 14.0165 21.5967 14.0004 21.1562L12.0017 21.2294ZM12.062 21.0573C12.1031 21.0095 12.1606 20.979 12.2232 20.9719L12.4505 22.9589C12.8884 22.9088 13.2912 22.6953 13.5785 22.3612L12.062 21.0573ZM12.2232 20.9719C12.2857 20.9647 12.3487 20.9814 12.3994 21.0187L11.2166 22.6314C11.5719 22.892 12.0126 23.009 12.4505 22.9589L12.2232 20.9719ZM12.4543 21.062L12.3693 20.99L11.0767 22.5161L11.1617 22.5881L12.4543 21.062ZM12.4293 21.045L9.52625 18.149L8.11375 19.565L11.0167 22.461L12.4293 21.045ZM8.30487 17.9999C7.84255 18.2778 7.32227 18.445 6.78464 18.4886L6.94621 20.482C7.79105 20.4136 8.60863 20.1507 9.33513 19.7141L8.30487 17.9999ZM6.78464 18.4886C6.24702 18.5321 5.70659 18.4509 5.20557 18.2511L4.4648 20.1088C5.25213 20.4228 6.10137 20.5505 6.94621 20.482L6.78464 18.4886ZM5.20557 18.2511C4.70454 18.0513 4.25647 17.7384 3.89633 17.3369L2.40743 18.6722C2.97336 19.3032 3.67747 19.7949 4.4648 20.1088L5.20557 18.2511ZM3.89633 17.3369C3.53619 16.9353 3.27373 16.456 3.12945 15.9362L1.20233 16.4712C1.42906 17.288 1.84149 18.0412 2.40743 18.6722L3.89633 17.3369ZM3.12945 15.9362C2.98517 15.4165 2.96296 14.8705 3.06456 14.3407L1.10036 13.964C0.940702 14.7964 0.9756 15.6545 1.20233 16.4712L3.12945 15.9362ZM3.06456 14.3407C3.16616 13.811 3.38883 13.3119 3.71517 12.8824L2.12275 11.6724C1.60993 12.3473 1.26003 13.1316 1.10036 13.964L3.06456 14.3407ZM3.71517 12.8824C4.04151 12.453 4.4627 12.1047 4.94585 11.8649L4.05667 10.0735C3.29743 10.4503 2.63557 10.9975 2.12275 11.6724L3.71517 12.8824ZM4.94585 11.8649C5.429 11.6251 5.96103 11.5002 6.50042 11.5L6.49958 9.5C5.65196 9.50036 4.8159 9.69662 4.05667 10.0735L4.94585 11.8649ZM6.5 11C5.43913 11 4.42172 11.4214 3.67157 12.1716L5.08579 13.5858C5.46086 13.2107 5.96957 13 6.5 13V11ZM3.67157 12.1716C2.92143 12.9217 2.5 13.9391 2.5 15H4.5C4.5 14.4696 4.71071 13.9609 5.08579 13.5858L3.67157 12.1716ZM2.5 15C2.5 16.0609 2.92143 17.0783 3.67157 17.8284L5.08579 16.4142C4.71071 16.0391 4.5 15.5304 4.5 15H2.5ZM3.67157 17.8284C4.42172 18.5786 5.43913 19 6.5 19V17C5.96957 17 5.46086 16.7893 5.08579 16.4142L3.67157 17.8284ZM6.5 19C7.56086 19 8.57828 18.5786 9.32843 17.8284L7.91421 16.4142C7.53914 16.7893 7.03043 17 6.5 17V19ZM9.32843 17.8284C10.0786 17.0783 10.5 16.0609 10.5 15H8.5C8.5 15.5304 8.28929 16.0391 7.91421 16.4142L9.32843 17.8284ZM10.5 15C10.5 13.9391 10.0786 12.9217 9.32843 12.1716L7.91421 13.5858C8.28929 13.9609 8.5 14.4696 8.5 15H10.5ZM9.32843 12.1716C8.57828 11.4214 7.56086 11 6.5 11V13C7.03043 13 7.53914 13.2107 7.91421 13.5858L9.32843 12.1716ZM14 3.005C14.5253 3.005 15.0454 3.10847 15.5307 3.30949L16.2961 1.46173C15.5681 1.1602 14.7879 1.005 14 1.005V3.005ZM15.5307 3.30949C16.016 3.51051 16.457 3.80514 16.8284 4.17658L18.2426 2.76236C17.6855 2.20521 17.0241 1.76326 16.2961 1.46173L15.5307 3.30949ZM16.8284 4.17658C17.1999 4.54801 17.4945 4.98897 17.6955 5.47427L19.5433 4.7089C19.2417 3.98095 18.7998 3.31952 18.2426 2.76236L16.8284 4.17658ZM17.6955 5.47427C17.8965 5.95957 18 6.47972 18 7.005H20C20 6.21707 19.8448 5.43686 19.5433 4.7089L17.6955 5.47427ZM18 7.005C18 7.53029 17.8965 8.05044 17.6955 8.53574L19.5433 9.30111C19.8448 8.57315 20 7.79294 20 7.005H18ZM17.6955 8.53574C17.4945 9.02104 17.1999 9.462 16.8284 9.83343L18.2426 11.2476C18.7998 10.6905 19.2417 10.0291 19.5433 9.30111L17.6955 8.53574ZM16.8284 9.83343C16.457 10.2049 16.016 10.4995 15.5307 10.7005L16.2961 12.5483C17.0241 12.2468 17.6855 11.8048 18.2426 11.2476L16.8284 9.83343ZM15.5307 10.7005C15.0454 10.9015 14.5253 11.005 14 11.005V13.005C14.7879 13.005 15.5681 12.8498 16.2961 12.5483L15.5307 10.7005ZM14 11.005C12.9391 11.005 11.9217 10.5836 11.1716 9.83343L9.75736 11.2476C10.8826 12.3729 12.4087 13.005 14 13.005V11.005ZM11.1716 9.83343C10.4214 9.08329 10 8.06587 10 7.005H8C8 8.5963 8.63214 10.1224 9.75736 11.2476L11.1716 9.83343ZM10 7.005C10 5.94414 10.4214 4.92672 11.1716 4.17658L9.75736 2.76236C8.63214 3.88758 8 5.41371 8 7.005H10ZM11.1716 4.17658C11.9217 3.42643 12.9391 3.005 14 3.005V1.005C12.4087 1.005 10.8826 1.63715 9.75736 2.76236L11.1716 4.17658ZM14 2.505C13.4091 2.505 12.8239 2.6214 12.2779 2.84755L13.0433 4.69531C13.3466 4.56967 13.6717 4.505 14 4.505V2.505ZM12.2779 2.84755C11.732 3.07369 11.2359 3.40516 10.818 3.82302L12.2322 5.23724C12.4644 5.00509 12.74 4.82094 13.0433 4.69531L12.2779 2.84755ZM10.818 3.82302C10.4002 4.24089 10.0687 4.73696 9.84254 5.28293L11.6903 6.0483C11.8159 5.74498 12.0001 5.46938 12.2322 5.23724L10.818 3.82302ZM9.84254 5.28293C9.61639 5.82889 9.5 6.41406 9.5 7.005H11.5C11.5 6.6767 11.5647 6.35161 11.6903 6.0483L9.84254 5.28293ZM9.5 7.005C9.5 7.59595 9.61639 8.18111 9.84254 8.72708L11.6903 7.96171C11.5647 7.6584 11.5 7.33331 11.5 7.005H9.5ZM9.84254 8.72708C10.0687 9.27305 10.4002 9.76912 10.818 10.187L12.2322 8.77277C12.0001 8.54062 11.8159 8.26503 11.6903 7.96171L9.84254 8.72708ZM10.818 10.187C11.2359 10.6048 11.732 10.9363 12.2779 11.1625L13.0433 9.3147C12.74 9.18907 12.4644 9.00492 12.2322 8.77277L10.818 10.187ZM12.2779 11.1625C12.8239 11.3886 13.4091 11.505 14 11.505V9.505C13.6717 9.505 13.3466 9.44034 13.0433 9.3147L12.2779 11.1625ZM14 11.505C15.1935 11.505 16.3381 11.0309 17.182 10.187L15.7678 8.77277C15.2989 9.24161 14.663 9.505 14 9.505V11.505ZM17.182 10.187C18.0259 9.34307 18.5 8.19848 18.5 7.005H16.5C16.5 7.66805 16.2366 8.30393 15.7678 8.77277L17.182 10.187ZM18.5 7.005C18.5 5.81153 18.0259 4.66694 17.182 3.82302L15.7678 5.23724C16.2366 5.70608 16.5 6.34196 16.5 7.005H18.5ZM17.182 3.82302C16.3381 2.97911 15.1935 2.505 14 2.505V4.505C14.663 4.505 15.2989 4.7684 15.7678 5.23724L17.182 3.82302Z" fill="#EAECF0" mask="url(#path-1-inside-1_377_1078)"/>
</svg>
