<svg width="44" height="44" viewBox="0 0 44 44" fill="none" xmlns="http://www.w3.org/2000/svg">
<path d="M4 0.599609H40C41.8778 0.599609 43.4004 2.12223 43.4004 4V40C43.4004 41.8778 41.8778 43.4004 40 43.4004H4C2.12223 43.4004 0.599609 41.8778 0.599609 40V4C0.599609 2.12223 2.12223 0.599609 4 0.599609Z" stroke="#EAECF0" stroke-width="1.2"/>
<path d="M25.1034 10C23.4115 10 21.7889 10.6408 20.5926 11.7814C19.3962 12.9221 18.7241 14.4691 18.7241 16.0822V19.4685H15.3103C15.1393 19.4685 15 19.6 15 19.7644V24.2356C15 24.3987 15.1379 24.5315 15.3103 24.5315H18.7241V33.7041C18.7241 33.8672 18.8621 34 19.0345 34H23.7241C23.8952 34 24.0345 33.8685 24.0345 33.7041V24.5315H27.4786C27.6207 24.5315 27.7448 24.4395 27.7793 24.3079L28.9517 19.8367C28.9633 19.7931 28.9642 19.7475 28.9545 19.7035C28.9448 19.6595 28.9247 19.6181 28.8957 19.5826C28.8667 19.5471 28.8296 19.5184 28.7872 19.4986C28.7448 19.4788 28.6982 19.4685 28.651 19.4685H24.0345V16.0822C24.0345 15.9484 24.0621 15.8158 24.1159 15.6922C24.1696 15.5685 24.2483 15.4562 24.3476 15.3615C24.4468 15.2669 24.5647 15.1918 24.6944 15.1406C24.8241 15.0894 24.9631 15.063 25.1034 15.063H28.6897C28.8607 15.063 29 14.9315 29 14.7671V10.2959C29 10.1328 28.8621 10 28.6897 10H25.1034Z" fill="#EAECF0"/>
</svg>
