<svg width="44" height="44" viewBox="0 0 44 44" fill="none" xmlns="http://www.w3.org/2000/svg">
<path d="M4 0.599609H40C41.8778 0.599609 43.4004 2.12223 43.4004 4V40C43.4004 41.8778 41.8778 43.4004 40 43.4004H4C2.12223 43.4004 0.599609 41.8778 0.599609 40V4C0.599609 2.12223 2.12223 0.599609 4 0.599609Z" stroke="#EAECF0" stroke-width="1.2"/>
<path fill-rule="evenodd" clip-rule="evenodd" d="M22.7015 17.5945V19.9279C23.1901 19.1836 23.8637 18.5789 24.6562 18.173C25.4486 17.7671 26.3329 17.5739 27.2225 17.6124C31.9731 17.6124 33.0002 20.5824 33.0002 24.4461V32.3125H28.6002V25.3385C28.6002 23.6748 28.2647 21.5352 25.6742 21.5352C23.1621 21.5352 22.7331 23.3461 22.7331 25.2148V32.3125H18.3469V17.5945H22.7015ZM15.4002 13.8958C15.3997 14.3316 15.2705 14.7576 15.0288 15.1204C14.7872 15.4831 14.4438 15.7665 14.0417 15.9349C13.6399 16.1019 13.1974 16.1456 12.7706 16.0604C12.3438 15.9752 11.952 15.7649 11.6451 15.4564C11.3376 15.1476 11.1283 14.7549 11.0434 14.3275C10.9585 13.9 11.0019 13.4571 11.1682 13.0543C11.3344 12.6515 11.616 12.3068 11.9775 12.0636C12.3391 11.8204 12.7645 11.6896 13.2002 11.6875C13.4899 11.6875 13.7766 11.7447 14.0441 11.8558C14.3115 11.9668 14.5544 12.1296 14.7588 12.3348C14.9632 12.5399 15.1251 12.7834 15.2352 13.0513C15.3452 13.3192 15.4013 13.6061 15.4002 13.8958Z" fill="#EAECF0"/>
<path d="M15.3998 17.6123H10.9998V32.3124H15.3998V17.6123Z" fill="#EAECF0"/>
</svg>
