<svg width="44" height="44" viewBox="0 0 44 44" fill="none" xmlns="http://www.w3.org/2000/svg">
<path d="M4 0.599609H40C41.8778 0.599609 43.4004 2.12223 43.4004 4V40C43.4004 41.8778 41.8778 43.4004 40 43.4004H4C2.12223 43.4004 0.599609 41.8778 0.599609 40V4C0.599609 2.12223 2.12223 0.599609 4 0.599609Z" stroke="#EAECF0" stroke-width="1.2"/>
<path d="M28.9 11H32.5806L24.5406 20.3181L34 33H26.5943L20.7897 25.3101L14.1554 33H10.4714L19.0703 23.0299L10 11.0017H17.5943L22.8331 18.0293L28.9 11ZM27.6057 30.7667H29.6457L16.48 13.1171H14.2926L27.6057 30.7667Z" fill="#EAECF0"/>
</svg>
