<svg width="207" height="34" viewBox="0 0 207 34" fill="none" xmlns="http://www.w3.org/2000/svg">
<path d="M11.8062 11.0653V22.2647C13.3122 21.4475 14.3668 20.0247 14.8787 18.4204L14.9993 18.4812C14.6677 22.4767 11.9567 26.4718 7.73933 26.4718C3.49169 26.4718 0.358704 23.2939 0.358704 18.2083C0.358704 14.3949 2.82886 12.0033 5.99211 9.85409C5.52991 9.73226 5.05392 9.67122 4.57608 9.67249C2.40685 9.67249 1.14173 11.1557 1.14173 12.6693H0.960995C0.930725 12.4572 0.930725 12.2457 0.930725 12.0337C0.930725 9.33972 2.34676 6.07056 5.78111 6.07056C7.98016 6.07056 9.66729 8.09852 12.2278 8.09852C13.2521 8.09852 14.5172 7.61412 15.0292 6.49414H15.1195C15.0897 8.46216 14.4874 10.4901 11.8062 11.0653ZM13.4328 22.5371C11.9264 24.141 10.2999 25.5034 8.19116 25.5034C4.27516 25.5034 1.26281 22.4159 1.26281 17.936C1.26281 15.3028 2.3472 13.8805 3.55223 12.2153H3.43159C2.67839 12.9721 0.690342 14.8788 0.690342 18.1175C0.690342 23.0819 3.79306 26.139 7.85997 26.139C10.6916 26.139 12.6195 24.1719 13.4934 22.5675L13.4328 22.5371ZM14.6374 7.85699C14.1255 8.82535 13.0411 10.0661 10.842 10.0661C8.64299 10.0661 6.62467 8.55251 4.84718 8.55251C3.22014 8.55251 2.10593 9.64253 1.68392 10.4597L1.71419 10.5205C2.28666 9.94533 3.16005 9.37013 4.57608 9.37013C6.92559 9.37013 8.43199 10.8233 10.8118 10.8233C13.3425 10.8233 14.487 9.15812 14.698 7.88741L14.6374 7.85699ZM6.26276 9.94533C4.72654 11.5497 3.31051 13.3053 3.31051 16.7256C3.31051 18.6019 3.94307 20.5391 5.3591 21.7499L6.23249 21.2955V13.1841L5.4192 13.6076L5.26874 13.3048L9.48611 11.004C8.34163 10.7625 7.31733 10.2481 6.26276 9.94533ZM11.4746 11.1257C11.2636 11.1557 11.0531 11.1557 10.8118 11.1557C10.3902 11.1557 9.99848 11.1257 9.60675 11.0345V19.8727L5.66047 22.0227C6.47376 22.6279 7.46779 22.9911 8.73291 22.9911C9.75721 22.9911 10.6609 22.7791 11.4742 22.4159L11.4746 11.1257ZM7.1366 12.6697L6.56413 13.0025V21.1148L7.1366 20.8119V12.6697ZM24.4584 13.8197V24.2927C24.4584 27.1982 21.8979 29.1662 19.036 29.741L18.9759 29.6197C20.3919 28.9233 21.2052 27.501 21.2052 25.9874V15.1512L19.5786 13.6685L18.9461 14.3644V22.8095L19.8497 23.6267V23.6875L17.4098 26.351L14.6085 23.7783V23.6571L15.6929 22.5067V9.12816L18.886 5.70827L18.9461 5.73824V13.8501L21.5671 11.0049L24.3084 13.4873L24.8203 12.9421L25.0616 13.1546L24.4584 13.8197ZM16.0236 23.7175V23.6571L16.6562 23.0211V8.61334L16.0236 9.27978V22.7187L15.0594 23.6875V23.7479L17.4089 25.8666L17.8305 25.3822L16.0236 23.7175ZM22.169 14.6668L20.2107 12.9721L19.7892 13.426L21.5364 15.0005V25.8971C21.5364 26.6234 21.3859 27.3798 21.1148 27.8038L21.1451 27.8342C21.8983 27.289 22.1694 26.4718 22.1694 25.4126V14.6668H22.169ZM29.2482 19.9035V21.4471L32.1702 23.7474L33.8573 21.9315L34.0986 22.1735L30.1826 26.3806L26.206 23.1722L25.6038 23.8078L25.3625 23.5658L26.0556 22.8395V15.1816L31.7491 11.0045L34.7316 15.8476L29.2482 19.9035ZM27.0189 22.5675V14.8788L26.3863 15.3332V22.8703L30.1221 25.9275L30.6042 25.4131L27.0189 22.5675ZM29.3088 13.2445L29.2482 13.2749V19.48L31.9294 17.5124L29.3088 13.2445ZM30.0918 12.6393L29.5496 13.0324L32.2009 17.3004L32.7431 16.9068L30.0918 12.6393ZM54.3677 26.3506L50.1802 22.7182L46.9871 26.3506L42.6491 22.597V16.6648H41.8055C41.0523 16.6648 40.661 17.1492 40.4799 17.7239H40.3895C40.2934 17.3481 40.2428 16.962 40.239 16.574C40.239 15.7868 40.45 13.7289 42.6491 13.7289V8.52254C42.6491 7.52377 41.4743 7.13017 41.4743 5.79817C41.4743 4.07347 43.1009 2.37829 46.0834 1.31824L46.2041 1.40903C45.1197 2.04506 44.5472 2.65023 44.5472 3.95181C44.5472 5.9498 46.4752 5.43498 46.4752 8.58292V9.79371L49.9999 6.07056L53.7053 9.73288L57.1998 6.07056L60.5736 9.4001V20.5995L54.3677 26.3506ZM43.6133 22.1131V15.7268H41.9262C41.0523 15.7268 40.661 16.3016 40.6005 16.8164L40.6303 16.8468C40.9317 16.5141 41.2331 16.3325 41.9257 16.3325H42.9798V22.4468L46.9564 25.8975L47.4082 25.3523L43.6133 22.1131ZM43.6133 8.21974C43.6133 6.97899 42.5289 6.55497 42.5289 5.76821C42.5289 4.67819 42.9505 3.77066 43.6133 2.92307L43.5532 2.8931C42.6495 3.58951 41.806 4.7095 41.806 5.79862C41.806 6.88864 42.9807 7.40301 42.9807 8.37181V13.7293H43.6133V8.21974ZM49.9696 11.2469L47.6802 9.00694L46.4752 10.2477V20.9627L49.2164 23.2934L49.9696 22.4459V11.2469ZM50.9334 22.0527V10.8233L48.3729 8.28057L47.8908 8.76497L50.3008 11.0953V22.3855L54.3677 25.927L54.8498 25.4726L50.9334 22.0527ZM56.7778 10.8533L54.8801 9.03691L53.7957 10.1569V20.9327L56.748 23.5354L56.7778 23.5055V10.8533ZM57.7415 10.4297L55.5425 8.28057L55.0907 8.76497L57.109 10.7021V23.3543L57.7415 22.7487V10.4297ZM70.5419 26.3506L67.68 23.7474L65.1195 26.3506L61.9865 23.5658L61.5645 24.0198L61.3237 23.7778L61.8659 23.2027V15.0913L67.5296 10.9745L70.7832 13.5173L71.3556 12.9117L71.5969 13.1541L70.9341 13.8501V22.2347L72.5304 23.7175L73.0428 23.1727L73.2836 23.3847L70.5419 26.3506ZM62.8301 22.9911V14.8184L62.1975 15.2724V23.2939L65.0897 25.8971L65.5718 25.4126L62.8301 22.9911ZM67.68 15.0304L65.2099 13.0933L65.1195 13.1541V21.9619L67.1681 23.7474L67.68 23.2331V15.0304ZM68.6442 23.2635V14.5764L66.0837 12.4877L65.4814 12.9112L68.0117 14.9092V23.5658L70.5424 25.8662L70.9942 25.3818L68.6442 23.2635ZM79.3083 16.4832H82.411V22.9607L77.6212 26.3506C76.9886 25.6242 76.0845 25.1098 74.9703 25.1098C74.0666 25.1098 73.3432 25.4127 72.3795 26.2298L72.229 26.169L76.3262 20.1759H73.7955V14.546L78.8266 11.0349C79.4289 11.5193 79.8808 11.7912 80.6642 11.7912C81.267 11.7912 82.1404 11.67 82.8032 11.1257L82.9238 11.1861L79.3083 16.4832ZM75.9345 24.2318C75.0607 24.2318 74.368 24.5346 73.7653 24.9582V25.019C74.2474 24.807 74.7295 24.7467 75.1813 24.7467C75.8739 24.7467 76.9588 25.0799 77.6817 25.9275L78.3748 25.4131C77.8019 24.7467 77.1092 24.2318 75.9345 24.2318ZM79.1574 19.1467H77.4703L73.9455 24.2627L73.9758 24.3231C74.8492 23.6875 75.6928 23.2639 76.7171 23.2639C77.6207 23.2639 78.5546 23.6875 79.1271 24.4139L79.1574 24.3839V19.1467ZM74.7593 19.1467V14.2741L74.1267 14.7281V19.8132H76.5666L77.0487 19.1472L74.7593 19.1467ZM81.0555 13.214C80.423 13.6685 80.0615 13.9105 79.0069 13.9105C78.4042 13.9105 77.6813 13.6381 77.1092 13.0324L77.0491 13.0629V17.482H78.1936L81.0858 13.244L81.0555 13.214ZM79.6097 12.9416C79.0675 12.9416 78.3748 12.6697 77.9225 12.0641L77.1693 12.5785C77.7418 13.2749 78.284 13.5772 79.1271 13.5772C79.6693 13.5772 80.4528 13.4256 81.2661 12.7292L81.2959 12.6388C80.7844 12.8513 80.1519 12.9416 79.6097 12.9416ZM80.1216 18.1484H78.1634L77.7115 18.784H79.489V24.6559L80.1216 24.2019V18.1484ZM92.804 13.8197V24.2927C92.804 27.1982 90.2435 29.1662 87.3816 29.741L87.3215 29.6197C88.7375 28.9233 89.5508 27.501 89.5508 25.9874V15.1512L87.9242 13.6685L87.2917 14.3644V22.8095L88.1953 23.6267V23.6875L85.7554 26.351L82.9541 23.7783V23.6571L84.0385 22.5067V9.12816L87.2316 5.70827L87.2917 5.73824V13.8501L89.9127 11.0049L92.654 13.4873L93.1659 12.9421L93.4072 13.1546L92.804 13.8197ZM84.3692 23.7175V23.6571L85.0018 23.0211V8.61334L84.3692 9.27934V22.7182L83.405 23.6871V23.7474L85.7545 25.8662L86.1761 25.3818L84.3692 23.7175ZM90.5146 14.6668L88.5563 12.9721L88.1348 13.426L89.882 15.0005V25.8971C89.882 26.6234 89.7315 27.3798 89.4604 27.8038L89.4907 27.8342C90.2439 27.289 90.515 26.4718 90.515 25.4126L90.5146 14.6668ZM98.2869 26.3506L95.6961 23.9594L95.0934 24.595L94.8521 24.3526L95.5452 23.5963V14.8488L94.2801 13.6381L93.798 14.1833L93.5567 13.9409L96.2677 10.9745L98.6778 13.1541L99.2805 12.4881L99.5516 12.7001L98.7984 13.5173V22.356L100.245 23.7179L100.908 23.0215L101.148 23.2639L98.2869 26.3506ZM96.5094 23.3847V14.3644L94.9429 12.9117L94.5214 13.3961L95.8769 14.6977V23.6875L98.2869 25.8666L98.7388 25.3822L96.5094 23.3847ZM97.4131 10.7325L94.9429 8.46261L97.2025 6.04104L99.6727 8.31098L97.4131 10.7325ZM95.8769 7.97776L95.425 8.43174L97.3828 10.2781L97.8347 9.76374L95.8769 7.97776ZM111.025 26.3506L108.404 23.9594V15.1212L106.807 13.6685L105.964 14.5764V22.7487L106.898 23.6262V23.7474L104.427 26.3506L101.626 23.7778V23.6871L102.71 22.5371V14.9092L101.294 13.6076L100.722 14.2432L100.481 14.0012L103.222 11.0045L105.964 13.4565V14.0616L108.825 11.0045L111.506 13.426L112.109 12.7905L112.38 13.0324L111.657 13.7892V22.4459L113.013 23.717L113.675 22.9906L113.916 23.2326L111.025 26.3506ZM103.072 23.7175V23.6571C103.072 23.7175 103.675 23.0515 103.675 23.0515V14.4548L101.957 12.8808L101.535 13.3348L103.042 14.7272V22.7178L102.108 23.6866V23.747L104.427 25.8657L104.909 25.3514L103.072 23.7175ZM109.368 23.4755V14.6069L107.5 12.9117L107.018 13.426L108.735 14.9696V23.7778L110.994 25.8966L111.476 25.3818L109.368 23.4755ZM119.52 31.7989C118.526 30.7093 117.833 30.2553 116.899 30.2553C115.905 30.2553 114.76 30.6489 113.585 31.2845L113.495 31.1942L117.652 26.351L114.7 23.9903L114.128 24.5959L113.887 24.3839L114.549 23.6575V15.0913L120.273 10.9745L123.466 13.5173L124.009 12.9117L124.25 13.1541L123.617 13.8501V24.2023C123.617 25.7763 124.49 25.7159 124.49 26.8958C124.49 28.2578 122.532 29.5289 119.52 31.7989ZM115.513 23.4147V14.8488L114.881 15.3033V23.6875L117.863 26.1091L118.315 25.5638L115.513 23.4147ZM117.622 29.4686C116.628 29.4686 115.724 29.7714 114.881 30.3461V30.407C115.423 30.1949 116.025 29.9226 117.05 29.9226C117.984 29.9226 118.767 30.4369 119.55 31.3453L120.153 30.8609C119.399 29.9834 118.496 29.4686 117.622 29.4686ZM121.297 26.5626C120.545 26.0782 120.363 25.5638 120.363 24.2623V23.717L115.363 29.5285L115.393 29.5585C116.357 28.9837 117.23 28.5601 118.646 28.5601C119.851 28.5601 120.665 29.0441 121.599 29.8313C122.171 29.3469 122.562 28.863 122.562 28.1062C122.562 27.501 122.05 27.047 121.297 26.5626ZM120.363 15.0304L117.863 13.0633L117.802 13.1237V22.4159L119.731 23.9295L120.363 23.2031V15.0304ZM122.201 26.139C121.418 25.5334 121.327 25.019 121.327 23.7175V14.5161L118.796 12.4577L118.224 12.8513L120.695 14.8184V24.141C120.695 25.4426 120.755 25.8063 121.568 26.3506C122.291 26.835 122.863 27.3494 122.863 28.0458C122.863 28.2269 122.834 28.5297 122.834 28.5297L122.863 28.5601C123.014 28.4085 123.195 28.1665 123.195 27.7729C123.195 27.1074 122.864 26.6534 122.201 26.139ZM129.431 26.3506L126.66 24.1715L126.087 24.807L125.846 24.5646L126.509 23.8382V13.2445H124.761L124.701 13.1841L125.756 11.6097H126.508V9.58214L129.702 6.16181L129.762 6.22264V11.6101H132.172L132.232 11.6709L131.178 13.2449H129.762V22.4163L131.419 23.6879L132.052 22.9915L132.293 23.2335L129.431 26.3506ZM127.473 9.06733L126.84 9.76374V11.6101H127.473V9.06733ZM127.473 23.5359V13.2445H126.84V23.8991L129.401 25.8971L129.853 25.4126L127.473 23.5359ZM142.143 14.1225V22.5975L137.052 26.381L133.226 23.4755L132.774 23.9899L132.533 23.7474L133.076 23.1423V14.8488L138.408 11.0045L141.963 13.7897L142.535 13.1841L142.776 13.426L142.143 14.1225ZM134.04 22.8399V14.5764L133.407 15.0304V23.1727L137.022 25.9574L137.595 25.5339L134.04 22.8399ZM138.89 15.1212L136.359 13.1232L136.33 13.1537V22.1735L138.89 24.1106V15.1212ZM139.854 14.5764L137.053 12.3969L136.481 12.8204L139.222 14.9392V24.353L139.854 23.8691V14.5764ZM153.651 26.3506L151.03 23.9594V15.1212L149.434 13.6685L148.59 14.5764V22.7487L149.524 23.6262V23.7474L147.054 26.3506L144.252 23.7778V23.6871L145.337 22.5371V14.9092L143.921 13.6076L143.348 14.2432L143.108 14.0012L145.849 11.0045L148.59 13.4565V14.0616L151.452 11.0045L154.133 13.426L154.735 12.7905L155.007 13.0324L154.284 13.7892V22.4459L155.639 23.717L156.302 22.9906L156.543 23.2326L153.651 26.3506ZM145.698 23.7175V23.6571C145.698 23.7175 146.301 23.0515 146.301 23.0515V14.4548L144.584 12.8808L144.162 13.3348L145.669 14.7272V22.7178L144.735 23.6866V23.747L147.054 25.8657L147.536 25.3514L145.698 23.7175ZM151.994 23.4755V14.6069L150.127 12.9117L149.645 13.426L151.362 14.9696V23.7778L153.621 25.8966L154.103 25.3818L151.994 23.4755ZM172.262 26.3506C171.418 25.4426 171.117 25.1398 170.123 24.8674V30.8001L170.062 30.8301L168.857 29.7401L165.363 32.9788L165.302 32.9488V24.807C164.248 25.049 163.133 25.5942 162.048 26.6834L161.988 26.6534C162.199 24.3226 163.344 22.5975 165.302 21.9315V16.0292H164.669C163.796 16.0292 163.313 16.4832 162.892 17.3004H162.802C162.711 17.0284 162.651 16.604 162.651 15.9084C162.651 14.6368 163.585 13.3053 165.121 13.3053H165.302V10.0361L164.067 8.91615L163.464 9.52176L163.253 9.30975L166.296 6.07101L169.127 8.67417V11.4285L169.79 10.7021V7.22096H170.121V10.3993L174.128 6.07056L177.532 9.18854V22.3555L172.262 26.3506ZM165.303 23.6871C164.068 23.929 163.195 24.6858 162.622 25.6846L162.652 25.7454C163.496 25.019 164.279 24.6863 165.303 24.4438V23.6871ZM166.267 15.0005H164.61C163.465 15.0005 163.013 15.7268 162.984 16.5744L163.013 16.6044C163.375 15.9988 163.736 15.7872 164.459 15.6969H165.635V32.1929L166.267 31.5873V15.0005ZM166.267 9.55173L164.761 8.1598L164.279 8.67417L165.635 9.8845V13.3048H166.267V9.55173ZM169.792 11.2769L169.129 11.9733V29.499L169.792 30.1046V11.2769ZM173.738 10.5809L171.961 8.94656L170.123 10.9446V21.5987C171.689 21.7503 172.774 22.2043 173.708 23.2331L173.738 23.2031V10.5809ZM170.123 23.6871V24.4743C171.147 24.7162 171.569 25.019 172.292 25.8662L172.985 25.3214C172.262 24.4134 171.539 23.8691 170.123 23.6871ZM174.702 10.097L172.653 8.18977L172.171 8.70414L174.069 10.4597V24.5346L174.702 24.0502V10.097ZM188.047 14.1225V22.5975L182.955 26.381L179.13 23.4755L178.677 23.9899L178.437 23.7474L178.979 23.1423V14.8488L184.311 11.0045L187.866 13.7897L188.438 13.1841L188.679 13.426L188.047 14.1225ZM179.944 22.8399V14.5764L179.311 15.0304V23.1727L182.926 25.9574L183.498 25.5339L179.944 22.8399ZM184.793 15.1212L182.263 13.1232L182.233 13.1537V22.1735L184.793 24.1106V15.1212ZM185.758 14.5764L182.956 12.3969L182.384 12.8204L185.125 14.9392V24.353L185.758 23.8691V14.5764ZM195.036 16.4832H198.139V22.9607L193.349 26.3506C192.716 25.6242 191.813 25.1098 190.698 25.1098C189.794 25.1098 189.071 25.4127 188.107 26.2298L187.957 26.169L192.053 20.1759H189.523V14.546L194.554 11.0349C195.157 11.5193 195.608 11.7912 196.391 11.7912C196.994 11.7912 197.867 11.67 198.53 11.1257L198.651 11.1861L195.036 16.4832ZM191.662 24.2318C190.788 24.2318 190.095 24.5346 189.493 24.9582V25.019C189.975 24.807 190.457 24.7467 190.909 24.7467C191.602 24.7467 192.686 25.0799 193.409 25.9275L194.102 25.4131C193.53 24.7467 192.837 24.2318 191.662 24.2318ZM194.885 19.1467H193.198L189.674 24.2627L189.704 24.3231C190.577 23.6875 191.421 23.2639 192.445 23.2639C193.349 23.2639 194.283 23.6875 194.855 24.4139L194.885 24.3839L194.885 19.1467ZM190.487 19.1467V14.2741L189.854 14.7281V19.8132H192.294L192.776 19.1472L190.487 19.1467ZM196.783 13.214C196.15 13.6685 195.789 13.9105 194.734 13.9105C194.131 13.9105 193.408 13.6381 192.836 13.0324L192.776 13.0629V17.482H193.92L196.813 13.244L196.783 13.214ZM195.337 12.9416C194.795 12.9416 194.102 12.6697 193.65 12.0641L192.897 12.5785C193.469 13.2749 194.012 13.5772 194.855 13.5772C195.397 13.5772 196.181 13.4256 196.994 12.7292L197.024 12.6388C196.512 12.8513 195.88 12.9416 195.337 12.9416ZM195.849 18.1484H193.891L193.44 18.784H195.217V24.6559L195.849 24.2019V18.1484ZM203.14 26.3506L200.368 24.1715L199.796 24.807L199.555 24.5646L200.217 23.8382V13.2445H198.47L198.41 13.1841L199.464 11.6097H200.217V9.58214L203.41 6.16181L203.471 6.22264V11.6101H205.88L205.941 11.6709L204.886 13.2449H203.471V22.4163L205.128 23.6879L205.76 22.9915L206.001 23.2335L203.14 26.3506ZM201.181 9.06733L200.549 9.76374V11.6101H201.181V9.06733ZM201.181 23.5359V13.2445H200.549V23.8991L203.109 25.8971L203.561 25.4126L201.181 23.5359Z" fill="white"/>
</svg>
