<svg width="297" height="26" viewBox="0 0 297 26" fill="none" xmlns="http://www.w3.org/2000/svg">
<g clip-path="url(#clip0_619_1029)">
<path d="M295.427 22.0995C294.565 22.0995 293.847 22.8177 293.847 23.7871C293.847 24.756 294.565 25.4742 295.427 25.4742C296.288 25.4742 297.006 24.756 297.006 23.7871C297.006 22.8177 296.288 22.0995 295.427 22.0995ZM238.279 25.3661H245.53V24.7203L244.741 24.5406C244.023 24.3609 243.699 23.9663 243.699 22.9607V13.1975H245.387C246.428 13.1975 246.966 13.4487 247.038 15.6387L247.218 20.2331C247.361 24.3609 248.546 25.51 250.557 25.51C252.602 25.51 253.141 24.1098 253.141 22.1357V21.3097H252.386V21.9198C252.386 23.2485 252.208 24.1817 251.704 24.1817C251.238 24.1817 251.202 23.8228 251.094 22.1714L250.879 19.013C250.592 14.777 250.053 13.3052 246.93 12.7305C249.91 11.9412 251.741 9.75125 251.741 6.6281C251.741 2.57176 248.546 0.633426 245.495 0.633426H233.254V1.27969L233.936 1.42314C235.228 1.71052 235.264 2.39255 235.264 5.30028V19.5868C235.264 22.7819 234.367 24.3252 232.32 24.3252C230.49 24.3252 229.485 23.4277 229.485 19.9457V2.96684C229.485 1.96169 229.807 1.67479 230.597 1.49512L231.567 1.27969V0.633426H224.065V1.27969L224.854 1.49512C225.572 1.71054 225.823 1.99791 225.823 3.00259V19.6945C225.823 23.4635 228.013 25.5457 231.352 25.5457C234.69 25.5457 236.341 23.4635 236.341 19.5868V4.00776C236.341 2.06942 236.736 1.38739 238.315 1.38739C239.572 1.38739 240.111 1.81824 240.111 3.00259V22.9607C240.111 23.9663 239.787 24.3252 239.069 24.5048L238.279 24.7203V25.3661ZM286.452 3.00259C286.452 1.99791 286.776 1.67479 287.493 1.53087L288.463 1.31544V0.633426H280.996V1.27969L281.786 1.49512C282.504 1.71054 282.827 1.99791 282.827 3.00259V23.1051C282.827 24.074 282.433 24.6125 281.319 24.6125C280.027 24.6125 279.847 24.1817 279.381 22.0642L274.786 0.561926H273.35L268.971 21.3817C268.468 23.7147 268.217 24.2537 267.248 24.5406L266.637 24.7203V25.3661H271.771V24.7203L271.017 24.5763C269.94 24.3609 269.653 23.7871 270.192 21.0586L272.776 7.74094L275.612 21.8483C276.042 23.8943 276.007 24.2894 274.463 24.5763L273.709 24.7203V25.3661H292.734V17.1819H292.052C291.693 20.9508 290.94 24.5048 287.889 24.5048H286.452V3.00259ZM275.253 18.6894V17.7205H270.407L270.264 18.6894H275.253ZM255.223 3.43345V20.592C255.223 23.1766 255.223 24.3971 253.931 24.6125L253.284 24.7203V25.3661H258.561V24.7203C256.263 24.3971 256.263 23.6074 256.263 20.8074V4.51054L255.402 3.72083L264.197 25.3661H265.704V5.40798C265.704 2.4645 265.704 1.81823 267.14 1.42314L267.643 1.27969V0.633426H262.222V1.27969L262.832 1.42314C264.663 1.74627 264.663 2.46452 264.663 5.19258V17.6842L265.022 17.5765L258.346 0.633426H253.212V1.27969L253.715 1.42314C254.29 1.60281 254.613 2.24909 255.223 3.43345ZM243.699 1.49512H245.136C246.571 1.49512 247.9 2.42831 247.9 7.09516C247.9 11.8693 246.895 12.3358 244.885 12.3358H243.699V1.49512ZM219.793 12.7667C219.793 23.1403 218.931 24.6125 217.065 24.6125C215.198 24.6125 214.372 23.1403 214.372 12.8382C214.372 2.85914 215.27 1.42314 217.065 1.42314C218.931 1.42314 219.793 2.85913 219.793 12.7667ZM223.706 12.9821C223.706 6.12575 221.516 0.454224 217.065 0.454224C212.578 0.454224 210.459 6.12575 210.459 12.9821C210.459 19.8742 212.649 25.5457 217.065 25.5457C221.624 25.5457 223.706 19.8742 223.706 12.9821ZM208.342 3.00259C208.342 1.99791 208.594 1.67479 209.311 1.49512L210.101 1.27969V0.633426H202.67V1.27969L203.567 1.49512C204.285 1.67479 204.681 1.92595 204.681 2.96684V20.2331C204.681 22.638 204.465 24.5763 202.67 24.5763C201.521 24.5763 200.66 23.6789 200.696 23.0331C200.803 21.9198 202.67 21.9922 202.814 20.1969C202.922 18.9048 202.096 18.3663 201.342 18.259C200.229 18.1151 198.866 19.0483 198.829 20.9151C198.793 23.32 200.373 25.51 203.065 25.51C206.045 25.51 208.342 23.4997 208.342 19.6583V3.00259ZM88.4476 3.00259C88.4476 1.99791 88.7708 1.67479 89.4885 1.53087L90.4579 1.31544V0.633426H82.9915V1.27969L83.7813 1.49512C84.499 1.71054 84.8222 1.99791 84.8222 3.00259V23.1051C84.8222 24.074 84.4271 24.6125 83.3142 24.6125C82.0221 24.6125 81.8067 24.1817 81.3401 22.0642L76.7452 0.561926H75.3097L70.9302 21.3817C70.4279 23.7147 70.1763 24.2537 69.2073 24.5406L68.5968 24.7203V25.3661H73.7303V24.7203L72.9763 24.5763C71.8996 24.3609 71.6123 23.7871 72.1508 21.0586L74.7354 7.66899L77.5712 21.8483C77.9658 23.8943 77.9658 24.2894 76.4226 24.5763L75.6686 24.7203V25.3661H94.7297V17.1819H94.0477C93.6888 20.9508 92.9348 24.5048 89.8836 24.5048H88.4476V3.00259ZM188.383 1.49512H189.173C191.399 1.49512 192.153 5.04864 192.404 8.81806H193.085V0.633426H180.055V8.81806H180.737C180.989 5.04864 181.743 1.49512 183.968 1.49512H184.758V22.9607C184.758 23.9663 184.435 24.3252 183.717 24.5048L182.784 24.7203V25.3661H190.538V24.7203L189.424 24.4691C188.742 24.2894 188.383 24.074 188.383 22.9607V1.49512ZM171.979 12.9459L173.091 12.9821C174.707 13.0179 175.173 13.6284 175.497 17.5413H176.179V7.56174H175.497C175.102 10.6849 174.671 12.0127 173.127 12.0489L171.979 12.0847V1.49514H174.456C177.22 1.49514 177.83 4.97717 178.225 8.81808H178.907V0.633449H166.523V1.27971L167.312 1.49514C168.137 1.71056 168.353 2.21337 168.353 3.03884V22.9607C168.353 23.9663 168.031 24.3252 167.312 24.5049L166.523 24.7203V25.3661H179.266V17.1819H178.584C178.153 20.9151 177.686 24.5049 174.456 24.5049H171.979V12.9459ZM158.446 12.9459L159.559 12.9821C161.174 13.0179 161.64 13.6284 161.964 17.5413H162.646V7.56174H161.964C161.569 10.6849 161.138 12.0127 159.595 12.0489L158.446 12.0847V1.49514H160.923C163.687 1.49514 164.297 5.04867 164.692 8.81808H165.374V0.633449H152.631V1.27971L153.779 1.49514C154.605 1.71056 154.82 2.21337 154.82 3.03884V22.9607C154.82 23.9663 154.497 24.3252 153.779 24.5049L152.99 24.7203V25.3661H165.732V17.1819H165.051C164.62 20.9151 164.153 24.5049 160.923 24.5049H158.446V12.9459ZM143.692 1.49512H144.769C146.205 1.49512 147.533 2.42831 147.533 7.09516C147.533 11.7973 146.528 12.3358 144.518 12.3358H143.692V1.49512ZM138.272 25.3661H145.523V24.7203L144.733 24.5406C144.015 24.3609 143.692 23.9663 143.692 22.9607V13.1975H145.02C146.061 13.1975 146.6 13.6284 146.672 15.6387L146.851 20.2331C146.995 24.3609 148.179 25.51 150.19 25.51C152.236 25.51 152.774 24.1098 152.774 22.1357V21.3097H152.02V21.9198C152.02 23.2485 151.841 24.1817 151.338 24.1817C150.872 24.1817 150.835 23.8228 150.728 22.1714L150.512 19.013C150.225 14.6693 149.651 13.3052 146.564 12.7305C149.543 11.9412 151.374 9.75125 151.374 6.6281C151.374 2.57176 148.179 0.633426 145.128 0.633426H138.272V1.27969L139.062 1.49512C139.78 1.71054 140.102 1.99791 140.102 3.00259V22.9607C140.102 23.9663 139.78 24.3252 139.062 24.5048L138.272 24.7203V25.3661ZM132.78 1.49512H133.57C135.795 1.49512 136.549 5.04864 136.801 8.81806H137.482V0.633426H124.452V8.81806H125.134C125.385 5.04864 126.139 1.49512 128.365 1.49512H129.154V22.9607C129.154 23.9663 128.831 24.3252 128.114 24.5048L127.18 24.7203V25.3661H134.754V24.7203L133.821 24.5048C132.888 24.2894 132.78 23.5717 132.78 22.9607V1.49512ZM124.488 18.9405C124.488 11.5819 116.411 9.64354 116.411 4.29514C116.411 3.14653 116.842 1.42314 118.636 1.42314C121.221 1.42314 122.19 4.76172 122.621 8.81806H123.303V0.633426H122.872C122.693 1.42315 122.37 1.7825 121.903 1.7825C121.078 1.7825 120.647 0.489973 118.673 0.489973C115.621 0.489973 113.539 3.03881 113.539 6.37692C113.539 12.4435 121.616 14.9919 121.616 20.592C121.616 23.1404 120.431 24.5763 118.816 24.5763C116.411 24.5763 114.832 21.741 114.401 17.1819H113.719V25.3661H114.15C114.509 24.1817 114.975 24.074 115.37 24.074C116.052 24.074 116.77 25.51 118.852 25.51C122.047 25.51 124.488 22.7462 124.488 18.9405ZM100.976 3.00259C100.976 1.99791 101.299 1.67479 102.016 1.53087L102.986 1.31544V0.633426H95.5194V1.27969L96.3092 1.49512C97.0269 1.71054 97.35 1.99791 97.35 3.00259V22.9607C97.35 23.9663 97.0269 24.3252 96.3092 24.5048L95.5194 24.7203V25.3661H107.258V17.1819H106.575C106.217 20.9508 105.463 24.5048 102.412 24.5048H100.976V3.00259ZM77.2118 18.6894V17.7205H72.3662L72.2223 18.6894H77.2118ZM56.464 25.438H57.9358L61.2739 7.77717H60.7715L64.4328 25.438H65.7253L70.1048 4.61827C70.5714 2.4283 70.8225 1.67478 71.6842 1.45889L72.3662 1.27969V0.633426H67.3047V1.27969L68.0587 1.42314C69.1354 1.63856 69.3865 2.28483 68.8842 4.94092L66.0484 18.9048H66.4793L63.6073 4.18741C63.3199 2.78717 63.1407 1.63856 64.3255 1.42314L65.1148 1.27969V0.633426H58.1869V1.27969L58.6535 1.38739C59.3718 1.5666 59.4795 1.99792 59.7664 3.36195L60.8792 8.71033L60.6638 5.47948L58.1869 18.5459H58.5101L55.6023 4.18741C55.2792 2.71567 55.1715 1.60281 56.3201 1.38739L56.8591 1.27969V0.633426H49.7873V1.27969L50.4694 1.45889C51.1152 1.63856 51.4745 1.9617 51.9053 3.93578L56.464 25.438ZM37.2952 12.9459L38.4081 12.9821C40.0233 13.0179 40.4899 13.6284 40.813 17.5413H41.495V7.56174H40.813C40.4184 10.6849 39.9875 12.0127 38.4438 12.0489L37.2952 12.0847V1.49514H39.7721C42.5359 1.49514 43.1464 5.04867 43.541 8.81808H44.2231V0.633449H31.8391V1.27971L32.6288 1.49514C33.4543 1.71056 33.6697 2.21337 33.6697 3.03884V22.9607C33.6697 23.9663 33.3466 24.3252 32.6288 24.5049L31.8391 24.7203V25.3661H44.5824V17.1819H43.8999C43.4695 20.9151 43.0029 24.5049 39.7721 24.5049H37.2952V12.9459ZM14.7163 25.3661H22.075V24.7203L21.2495 24.5406C20.6033 24.3971 20.1724 23.9663 20.1724 22.9607V13.1618H25.5928V22.9607C25.5928 23.9663 25.1624 24.3971 24.5161 24.5406L23.6907 24.7203V25.3661H31.0494V24.7203L30.2596 24.5048C29.5419 24.3252 29.2183 23.9301 29.2183 22.9254V3.00259C29.2183 1.99791 29.5419 1.67479 30.2596 1.49512L31.0494 1.27969V0.633426H23.6907V1.27969L24.5161 1.49512C25.1262 1.67479 25.5928 1.92595 25.5928 2.96684V12.1924H20.1724V2.96684C20.1724 1.96169 20.5675 1.67479 21.2495 1.49512L22.075 1.27969V0.633426H14.7163V1.27969L15.506 1.49512C16.2243 1.71054 16.5469 1.99791 16.5469 3.00259V22.9607C16.5469 23.9663 16.2243 24.3252 15.506 24.5048L14.7163 24.7203V25.3661ZM9.22399 1.49512H10.0142C12.2394 1.49512 12.9934 5.04864 13.2446 8.81806H13.9266V0.633426H0.896362V8.81806H1.57838C1.82955 5.04864 2.58352 1.49512 4.80877 1.49512H5.5985V22.9607C5.5985 23.9663 5.27583 24.3252 4.55761 24.5048L3.62442 24.7203V25.3661H11.3782V24.7203L10.2654 24.4691C9.58334 24.2894 9.22399 24.074 9.22399 22.9607V1.49512Z" fill="white"/>
</g>
<defs>
<clipPath id="clip0_619_1029">
<rect width="296.11" height="25.0915" fill="white" transform="translate(0.896362 0.454224)"/>
</clipPath>
</defs>
</svg>
