<svg width="138" height="38" viewBox="0 0 138 38" fill="none" xmlns="http://www.w3.org/2000/svg">
<g clip-path="url(#clip0_619_1040)">
<path d="M0.00610352 9.25061H8.21619L12.9968 21.3949L17.8395 9.25061H25.8334L13.7964 38H5.75186L9.04679 30.3819L0.00610352 9.25061Z" fill="white"/>
<path d="M34.161 8.76721C27.9924 8.76721 24.0928 14.2604 24.0928 19.7307C24.0928 25.8864 28.3682 30.7668 34.044 30.7668C38.2779 30.7668 39.8743 28.2054 39.8743 28.2054V30.2007H47.0351V9.25079H39.8743V11.1553C39.8743 11.1553 38.0933 8.76721 34.161 8.76721ZM35.6842 15.4997C38.5304 15.4997 39.9992 17.7359 39.9992 19.7537C39.9992 21.9265 38.4256 24.0587 35.6842 24.0587C33.4121 24.0587 31.3588 22.2151 31.3588 19.8462C31.3588 17.4437 33.0104 15.4997 35.6842 15.4997Z" fill="white"/>
<path d="M49.5011 30.2005V0H56.9908V11.2278C56.9908 11.2278 58.7698 8.76974 62.4957 8.76974C67.0532 8.76974 69.7234 12.1414 69.7234 16.9594V30.2005H62.2885V18.7733C62.2885 17.1428 61.5063 15.5676 59.7344 15.5676C57.9308 15.5676 56.9908 17.1666 56.9908 18.7733V30.2005H49.5011Z" fill="white"/>
<path d="M82.4931 8.76965C75.4288 8.76965 71.2224 14.1033 71.2224 19.8178C71.2224 26.321 76.3154 30.7667 82.5198 30.7667C88.5334 30.7667 93.7955 26.5227 93.7955 19.9269C93.7955 12.7099 88.2859 8.76965 82.4931 8.76965ZM82.5605 15.5613C85.0559 15.5613 86.7824 17.6249 86.7824 19.8256C86.7824 21.7026 85.1736 24.0176 82.5605 24.0176C80.1662 24.0176 78.3693 22.1106 78.3693 19.805C78.3693 17.5841 79.8632 15.5613 82.5605 15.5613Z" fill="white"/>
<path d="M106.273 8.76978C99.2086 8.76978 95.0022 14.1034 95.0022 19.8179C95.0022 26.3211 100.095 30.7669 106.3 30.7669C112.313 30.7669 117.575 26.5229 117.575 19.927C117.575 12.71 112.066 8.76978 106.273 8.76978ZM106.34 15.5614C108.836 15.5614 110.562 17.6251 110.562 19.8257C110.562 21.7027 108.953 24.0177 106.34 24.0177C103.946 24.0177 102.149 22.1107 102.149 19.8052C102.149 17.5842 103.643 15.5614 106.34 15.5614Z" fill="white"/>
<path d="M123.485 30.6452C126.232 30.6452 128.459 28.4343 128.459 25.707C128.459 22.9796 126.232 20.7687 123.485 20.7687C120.739 20.7687 118.512 22.9796 118.512 25.707C118.512 28.4343 120.739 30.6452 123.485 30.6452Z" fill="white"/>
<path d="M130.093 18.9547H121.14L129.086 0H138.006L130.093 18.9547Z" fill="white"/>
</g>
<defs>
<clipPath id="clip0_619_1040">
<rect width="138" height="38" fill="white" transform="translate(0.00610352)"/>
</clipPath>
</defs>
</svg>
